<svg width="43" height="34" viewBox="0 0 43 34" fill="none" xmlns="http://www.w3.org/2000/svg">
<path d="M11.4449 0C5.05964 0.408946 0.000244141 5.58893 0.000244141 11.9276H6.24598C6.24598 8.96273 8.51399 6.47498 11.4798 6.10011V0H11.4449Z" fill="#2E2E2E"/>
<path d="M13.0845 0V6.10011C16.0154 6.50906 18.2485 8.96273 18.2485 11.9276H24.4943C24.4943 5.58893 19.4349 0.408946 13.0845 0Z" fill="#2E2E2E"/>
<path d="M29.9503 0C23.565 0.408946 18.5056 5.58893 18.5056 11.9276H24.7514C24.7514 8.96273 27.0194 6.47498 29.9852 6.10011V0H29.9503Z" fill="#2E2E2E"/>
<path d="M31.5901 0V6.10011C34.521 6.50906 36.7542 8.96273 36.7542 11.9276H42.9999C42.9999 5.58893 37.9754 0.408946 31.5901 0Z" fill="#2E2E2E"/>
<path d="M20.6563 27.6272C17.5858 26.1618 7.01337 20.5729 6.52487 13.8594H0C0.488494 23.8786 16.7484 32.1597 20.6214 34V27.6272H20.6563Z" fill="#2E2E2E"/>
<path d="M36.4273 13.8594C35.9737 20.5729 25.3664 26.1618 22.2959 27.6272V34C26.169 32.1597 42.4637 23.8786 42.9173 13.8594H36.4273Z" fill="#2E2E2E"/>
</svg>
